<svg xmlns="http://www.w3.org/2000/svg" viewBox="0 0 100 100" width="100" height="100">
  <defs>
    <linearGradient id="bg" x1="0%" y1="0%" x2="100%" y2="100%">
      <stop offset="0%" style="stop-color:#6366f1"/>
      <stop offset="100%" style="stop-color:#4f46e5"/>
    </linearGradient>
  </defs>
  <!-- Rounded square background -->
  <rect width="100" height="100" rx="22" ry="22" fill="url(#bg)"/>
  <!-- Lucide Dna icon paths, scaled and centred (original 24x24 → 60x60, offset 20,20) -->
  <g transform="translate(20,20) scale(2.5)" fill="none" stroke="white" stroke-width="2" stroke-linecap="round" stroke-linejoin="round">
    <path d="m10 16 1.5 1.5"/>
    <path d="m14 8-1.5-1.5"/>
    <path d="M15 2c-1.798 1.998-2.518 3.995-2.807 5.993"/>
    <path d="m16.5 10.5 1 1"/>
    <path d="m17 6-2.891-2.891"/>
    <path d="M2 15c6.667-6 13.333 0 20-6"/>
    <path d="m20 9 .891.891"/>
    <path d="M3.109 14.109 4 15"/>
    <path d="m6.5 12.5 1 1"/>
    <path d="m7 18 2.891 2.891"/>
    <path d="M9 22c1.798-1.998 2.518-3.995 2.807-5.993"/>
  </g>
</svg>
